<?xml version="1.0" encoding="UTF-8"?>
<svg width="179" height="68.4" version="1.1" viewBox="0 0 179 68.4" xmlns="http://www.w3.org/2000/svg"><desc>voltage_mult.dxf - scale = 1.000000, origin = (0.000000, 0.000000), method = manual</desc><g transform="translate(-22.8 -897)"><g fill="none"><g stroke="#009800"><path d="m96.9 929h38.4"/><path d="m148 947v9.6"/><path d="m122 911h-26.1"/><path d="m77.4 911h-29.4"/><path d="m73.3 930v-19.2"/><path d="m78.2 930h-4.54"/></g><path d="m135 929h9.6" stroke="#900"/></g><g transform="rotate(90 77.9 902)" fill="none" stroke="#900"><path d="m101 887 4.8 9.6"/><path d="m106 897 4.8-9.6"/><path d="m110 897h-4.8"/><path d="m110 887h-9.6"/><path d="m106 897h-4.8"/><path d="m106 883v9.6"/><path d="m106 902v-9.6"/></g><g transform="translate(-38 -.0345)" fill="none" stroke="#900"><path d="m120 916 9.6-4.8"/><path d="m130 911-9.6-4.8"/><path d="m130 907v4.8"/><path d="m120 907v9.6"/><path d="m130 911v4.8"/><path d="m115 911h9.6"/><path d="m134 911h-9.6"/></g><path d="m148 947v-6.81" fill="none" stroke="#900"/><path d="m144 939v-9.6" fill="none" stroke="#900"/><g font-family="sans-serif" letter-spacing="0px" word-spacing="0px"><text x="123.695" y="915.55286" font-size="13.3px" style="line-height:1.25" xml:space="preserve"><tspan x="123.695" y="915.55286">LiPo charger</tspan></text><text x="22.485815" y="906.4549" font-size="13.3px" style="line-height:1.25" xml:space="preserve"><tspan x="22.485815" y="906.4549">4PIN</tspan><tspan x="22.485815" y="923.12152"/></text><text x="115.92451" y="963.9516" font-size="8.4px" style="line-height:1.25" xml:space="preserve"><tspan x="115.92451" y="963.9516">4PINPFET_GATE</tspan></text></g><g fill="none" stroke="#900"><path d="m152 939v-9.6"/><path d="m151 929h9.6"/><path d="m142 939h11.9"/><path d="m142 941h11.9"/></g><text x="161.15788" y="934.22668" font-family="sans-serif" font-size="13.3px" letter-spacing="0px" word-spacing="0px" style="line-height:1.25" xml:space="preserve"><tspan x="161.15788" y="934.22668">LiPo+</tspan></text></g></svg>