<?xml version="1.0" encoding="UTF-8"?>
<svg width="200" height="113" version="1.1" viewBox="0 0 200 113" xmlns="http://www.w3.org/2000/svg"><desc>voltage_mult.dxf - scale = 1.000000, origin = (0.000000, 0.000000), method = manual</desc><g transform="translate(-19 -856)"><g fill="none"><g stroke="#009800"><path d="m134 911h9.6"/><path d="m144 921v-9.6"/><path d="m144 911h38.4"/><path d="m144 950v9.6"/><path d="m115 911h-9.6"/><path d="m106 911h-9.6"/><path d="m106 902v9.6"/><path d="m67.2 911h-19.2"/><path d="m106 883v-19.2"/></g><g stroke="#900"><path d="m86.4 911h-1.92"/><path d="m76.8 911h1.92"/><path d="m67.2 911h9.6"/><path d="m96 911h-9.6"/><path d="m144 931v1.92"/><path d="m144 940v-1.92"/><path d="m144 950v-9.6"/><path d="m144 921v9.6"/><path d="m101 887 4.8 9.6"/><path d="m106 897 4.8-9.6"/><path d="m110 897h-4.8"/><path d="m110 887h-9.6"/><path d="m106 897h-4.8"/><path d="m106 883v9.6"/><path d="m106 902v-9.6"/><path d="m120 916 9.6-4.8"/><path d="m130 911-9.6-4.8"/><path d="m130 907v4.8"/><path d="m120 907v9.6"/><path d="m130 911v4.8"/><path d="m115 911h9.6"/><path d="m134 911h-9.6"/><path d="m79.2 916v-9.6"/><path d="m84 916v-9.6"/><path d="m139 933h9.6"/><path d="m139 938h9.6"/></g></g><g font-family="sans-serif" font-size="13.3px" letter-spacing="0px" word-spacing="0px"><text x="108.11478" y="873.11621" style="line-height:1.25" xml:space="preserve"><tspan x="108.11478" y="873.11621">3.3v</tspan></text><text x="164.76549" y="908.36499" style="line-height:1.25" xml:space="preserve"><tspan x="164.76549" y="908.36499">~5.2v</tspan></text><text x="20.340107" y="927.51678" style="line-height:1.25" xml:space="preserve"><tspan x="20.340107" y="927.51678">FRP@60Hz</tspan><tspan x="20.340107" y="944.18341"/></text><text x="145.0847" y="963.88153" style="line-height:1.25" xml:space="preserve"><tspan x="145.0847" y="963.88153">GND</tspan></text></g></g></svg>